<?xml version="1.0" encoding="UTF-8"?>
<svg id="Ebene_1" data-name="Ebene 1" xmlns="http://www.w3.org/2000/svg" viewBox="0 0 1800 750.49">
  <defs>
    <style>
      .cls-1 {
        fill: #fff;
      }
    </style>
  </defs>
  <g>
    <path class="cls-1" d="M586.88,208.46l52.36,101.39h.26v-101.39h33.96v182.61h-27.07l-55.42-106.5h-.26v106.5h-33.71v-182.61h29.88Z"/>
    <path class="cls-1" d="M825.96,360.67c0,16.86-7.66,30.4-31.16,30.4h-58.48c-23.5,0-31.42-13.54-31.42-30.4v-121.83c0-16.86,7.92-30.39,31.42-30.39h58.48c23.5,0,31.16,13.53,31.16,30.39v121.83ZM790.72,239.1h-50.31v121.31h50.31v-121.31Z"/>
    <path class="cls-1" d="M936.83,208.46c23.5,0,31.41,13.53,31.41,30.39v50.83c0,16.6-7.66,29.63-29.63,30.13l39.08,71.26h-40.86l-36.78-71.26h-7.16v71.26h-35.24v-182.61h79.18ZM892.89,288.91h31.93c4.34,0,8.17-3.83,8.17-8.43v-32.95c0-4.6-3.83-8.43-8.17-8.43h-31.93v49.8Z"/>
    <path class="cls-1" d="M983.08,208.46h104.21v30.65h-34.48v151.96h-35.24v-151.96h-34.48v-30.65Z"/>
    <path class="cls-1" d="M1188.18,283.03v-74.57h35.24v182.61h-35.24v-77.64h-47.25v77.64h-35.24v-182.61h35.24v74.57h47.25Z"/>
    <path class="cls-1" d="M1413.46,290.95c0,16.85-7.66,30.13-31.16,30.13h-42.4v69.98h-35.24v-182.61h77.64c23.5,0,31.16,13.53,31.16,30.39v52.11ZM1339.91,239.1v51.08h30.14c4.34,0,8.17-3.83,8.17-8.43v-34.23c0-4.6-3.83-8.43-8.17-8.43h-30.14Z"/>
    <path class="cls-1" d="M1517.44,208.46c23.5,0,31.41,13.53,31.41,30.39v50.83c0,16.6-7.66,29.63-29.63,30.13l39.08,71.26h-40.86l-36.78-71.26h-7.16v71.26h-35.24v-182.61h79.18ZM1473.51,288.91h31.93c4.34,0,8.17-3.83,8.17-8.43v-32.95c0-4.6-3.83-8.43-8.17-8.43h-31.93v49.8Z"/>
    <path class="cls-1" d="M1697.52,360.67c0,16.86-7.66,30.4-31.16,30.4h-58.48c-23.5,0-31.42-13.54-31.42-30.4v-121.83c0-16.86,7.92-30.39,31.42-30.39h58.48c23.5,0,31.16,13.53,31.16,30.39v121.83ZM1662.27,239.1h-50.31v121.31h50.31v-121.31Z"/>
  </g>
  <g>
    <path class="cls-1" d="M588.79,531.54c0,8.72,3.07,11.54,11.79,12.05l26.92,1.03c23.33,1.02,31.03,13.84,31.03,30.76v44.35c0,16.92-7.69,30.51-31.03,30.51h-39.48c-23.33,0-31.02-13.59-31.02-30.51v-18.46l26.66-5.64v21.79c0,4.62,3.85,8.46,8.2,8.46h30.77c4.36,0,7.95-3.85,7.95-8.46v-35.38c0-8.72-2.57-11.03-11.54-11.54l-26.92-1.02c-23.33-1.03-31.28-13.59-31.28-30.51v-41.53c0-16.92,7.95-30.51,31.28-30.51h34.36c23.33,0,31.02,13.58,31.02,30.51v16.92l-27.17,5.64v-20.25c0-4.62-3.59-8.46-7.69-8.46h-25.9c-4.36,0-7.95,3.85-7.95,8.46v31.79Z"/>
    <path class="cls-1" d="M724.44,650.24v-183.31h87.42v24.36h-59.73v53.84h36.92v25.12h-36.92v55.64h62.81v24.36h-90.5Z"/>
    <path class="cls-1" d="M940.58,466.93c23.33,0,31.28,13.58,31.28,30.51v47.69c0,16.92-7.95,30.25-31.28,30.25h-.26l40.76,74.86h-32.82l-38.2-74.86h-9.74v74.86h-27.69v-183.31h67.94ZM900.33,551.02h35.63c4.36,0,7.95-3.85,7.95-8.46v-42.81c0-4.62-3.59-8.46-7.95-8.46h-35.63v59.73Z"/>
    <path class="cls-1" d="M1049.57,466.93l31.54,125.88h.26l28.71-125.88h27.69l-47.18,183.31h-21.53l-49.22-183.31h29.74Z"/>
    <path class="cls-1" d="M1221.37,650.24h-27.69v-183.31h27.69v183.31Z"/>
    <path class="cls-1" d="M1290.86,497.44c0-16.92,7.95-30.51,31.28-30.51h37.18c23.33,0,31.03,13.58,31.03,30.51v25.64l-26.67,5.64v-37.43h-44.87v134.6h44.87v-42.05l26.67,5.39v30.51c0,16.92-7.69,30.51-31.03,30.51h-37.18c-23.33,0-31.28-13.59-31.28-30.51v-122.29Z"/>
    <path class="cls-1" d="M1455.22,650.24v-183.31h87.42v24.36h-59.73v53.84h36.92v25.12h-36.92v55.64h62.81v24.36h-90.5Z"/>
    <path class="cls-1" d="M1627.79,531.54c0,8.72,3.07,11.54,11.79,12.05l26.92,1.03c23.33,1.02,31.03,13.84,31.03,30.76v44.35c0,16.92-7.69,30.51-31.03,30.51h-39.48c-23.33,0-31.02-13.59-31.02-30.51v-18.46l26.66-5.64v21.79c0,4.62,3.85,8.46,8.2,8.46h30.77c4.35,0,7.95-3.85,7.95-8.46v-35.38c0-8.72-2.57-11.03-11.54-11.54l-26.92-1.02c-23.33-1.03-31.28-13.59-31.28-30.51v-41.53c0-16.92,7.95-30.51,31.28-30.51h34.36c23.33,0,31.02,13.58,31.02,30.51v16.92l-27.17,5.64v-20.25c0-4.62-3.59-8.46-7.69-8.46h-25.9c-4.36,0-7.95,3.85-7.95,8.46v31.79Z"/>
  </g>
  <g>
    <polygon class="cls-1" points="224.99 334.96 224.99 617.9 131.37 617.9 131.37 159.71 131.37 132.76 131.37 100.42 99.03 100.42 99.03 132.76 99.03 617.9 99.03 650.24 131.37 650.24 224.99 650.24 257.34 650.24 257.34 617.9 257.34 460.8 351.2 633.35 360.39 650.24 379.61 650.24 379.61 617.9 225.7 334.96 224.99 334.96"/>
    <polygon class="cls-1" points="454.79 100.42 360.46 100.42 328.12 100.42 328.12 132.76 328.12 275.44 242.81 117.4 233.65 100.42 214.35 100.42 214.35 132.76 359.75 402.13 360.46 402.13 360.46 132.76 454.79 132.76 454.79 546.41 454.79 617.9 454.79 650.24 487.14 650.24 487.14 617.9 487.14 132.76 487.14 100.42 454.79 100.42"/>
  </g>
</svg>