<?xml version="1.0" encoding="UTF-8"?>
<svg id="Ebene_1" xmlns="http://www.w3.org/2000/svg" version="1.1" viewBox="0 0 1800 750.5">
  <!-- Generator: Adobe Illustrator 29.8.1, SVG Export Plug-In . SVG Version: 2.1.1 Build 2)  -->
  <defs>
    <style>
      .st0 {
        fill: #1e3340;
      }
    </style>
  </defs>
  <g>
    <path class="st0" d="M588.8,531.5c0,8.7,3.1,11.5,11.8,12l26.9,1c23.3,1,31,13.8,31,30.8v44.3c0,16.9-7.7,30.5-31,30.5h-39.5c-23.3,0-31-13.6-31-30.5v-18.5l26.7-5.6v21.8c0,4.6,3.8,8.5,8.2,8.5h30.8c4.4,0,8-3.8,8-8.5v-35.4c0-8.7-2.6-11-11.5-11.5l-26.9-1c-23.3-1-31.3-13.6-31.3-30.5v-41.5c0-16.9,8-30.5,31.3-30.5h34.4c23.3,0,31,13.6,31,30.5v16.9l-27.2,5.6v-20.2c0-4.6-3.6-8.5-7.7-8.5h-25.9c-4.4,0-8,3.9-8,8.5v31.8h0Z"/>
    <path class="st0" d="M724.4,650.2v-183.3h87.4v24.4h-59.7v53.8h36.9v25.1h-36.9v55.6h62.8v24.4h-90.5Z"/>
    <path class="st0" d="M940.6,466.9c23.3,0,31.3,13.6,31.3,30.5v47.7c0,16.9-8,30.2-31.3,30.2h-.3l40.8,74.9h-32.8l-38.2-74.9h-9.7v74.9h-27.7v-183.3h68ZM900.3,551h35.6c4.4,0,8-3.8,8-8.5v-42.8c0-4.6-3.6-8.5-8-8.5h-35.6v59.7Z"/>
    <path class="st0" d="M1049.6,466.9l31.5,125.9h.3l28.7-125.9h27.7l-47.2,183.3h-21.5l-49.2-183.3h29.7,0Z"/>
    <path class="st0" d="M1221.4,650.2h-27.7v-183.3h27.7v183.3Z"/>
    <path class="st0" d="M1290.9,497.4c0-16.9,7.9-30.5,31.3-30.5h37.2c23.3,0,31,13.6,31,30.5v25.6l-26.7,5.6v-37.4h-44.9v134.6h44.9v-42l26.7,5.4v30.5c0,16.9-7.7,30.5-31,30.5h-37.2c-23.3,0-31.3-13.6-31.3-30.5v-122.3h0Z"/>
    <path class="st0" d="M1455.2,650.2v-183.3h87.4v24.4h-59.7v53.8h36.9v25.1h-36.9v55.6h62.8v24.4h-90.5Z"/>
    <path class="st0" d="M1627.8,531.5c0,8.7,3.1,11.5,11.8,12l26.9,1c23.3,1,31,13.8,31,30.8v44.3c0,16.9-7.7,30.5-31,30.5h-39.5c-23.3,0-31-13.6-31-30.5v-18.5l26.7-5.6v21.8c0,4.6,3.8,8.5,8.2,8.5h30.8c4.3,0,7.9-3.8,7.9-8.5v-35.4c0-8.7-2.6-11-11.5-11.5l-26.9-1c-23.3-1-31.3-13.6-31.3-30.5v-41.5c0-16.9,7.9-30.5,31.3-30.5h34.4c23.3,0,31,13.6,31,30.5v16.9l-27.2,5.6v-20.2c0-4.6-3.6-8.5-7.7-8.5h-25.9c-4.4,0-7.9,3.9-7.9,8.5v31.8h0Z"/>
    <polygon class="st0" points="225 335 225 617.9 131.4 617.9 131.4 159.7 131.4 132.8 131.4 100.4 99 100.4 99 132.8 99 617.9 99 650.2 131.4 650.2 225 650.2 257.3 650.2 257.3 617.9 257.3 460.8 351.2 633.3 360.4 650.2 379.6 650.2 379.6 617.9 225.7 335 225 335"/>
  </g>
  <g>
    <path class="st0" d="M586.9,208.5l52.4,101.4h.3v-101.4h34v182.6h-27.1l-55.4-106.5h-.3v106.5h-33.7v-182.6h29.9Z"/>
    <path class="st0" d="M826,360.7c0,16.9-7.7,30.4-31.2,30.4h-58.5c-23.5,0-31.4-13.5-31.4-30.4v-121.8c0-16.9,7.9-30.4,31.4-30.4h58.5c23.5,0,31.2,13.5,31.2,30.4v121.8ZM790.7,239.1h-50.3v121.3h50.3v-121.3Z"/>
    <path class="st0" d="M936.8,208.5c23.5,0,31.4,13.5,31.4,30.4v50.8c0,16.6-7.7,29.6-29.6,30.1l39.1,71.3h-40.9l-36.8-71.3h-7.2v71.3h-35.2v-182.6h79.2,0ZM892.9,288.9h31.9c4.3,0,8.2-3.8,8.2-8.4v-32.9c0-4.6-3.8-8.4-8.2-8.4h-31.9v49.8h0Z"/>
    <path class="st0" d="M983.1,208.5h104.2v30.6h-34.5v152h-35.2v-152h-34.5v-30.6h0Z"/>
    <path class="st0" d="M1188.2,283v-74.6h35.2v182.6h-35.2v-77.6h-47.2v77.6h-35.2v-182.6h35.2v74.6h47.2Z"/>
    <path class="st0" d="M1413.5,291c0,16.9-7.7,30.1-31.2,30.1h-42.4v70h-35.2v-182.6h77.6c23.5,0,31.2,13.5,31.2,30.4v52.1ZM1339.9,239.1v51.1h30.1c4.3,0,8.2-3.8,8.2-8.4v-34.2c0-4.6-3.8-8.4-8.2-8.4h-30.1Z"/>
    <path class="st0" d="M1517.4,208.5c23.5,0,31.4,13.5,31.4,30.4v50.8c0,16.6-7.7,29.6-29.6,30.1l39.1,71.3h-40.9l-36.8-71.3h-7.2v71.3h-35.2v-182.6h79.2ZM1473.5,288.9h31.9c4.3,0,8.2-3.8,8.2-8.4v-32.9c0-4.6-3.8-8.4-8.2-8.4h-31.9v49.8h0Z"/>
    <path class="st0" d="M1697.5,360.7c0,16.9-7.7,30.4-31.2,30.4h-58.5c-23.5,0-31.4-13.5-31.4-30.4v-121.8c0-16.9,7.9-30.4,31.4-30.4h58.5c23.5,0,31.2,13.5,31.2,30.4v121.8ZM1662.3,239.1h-50.3v121.3h50.3v-121.3Z"/>
    <polygon class="st0" points="454.8 100.4 360.5 100.4 328.1 100.4 328.1 132.8 328.1 275.4 242.8 117.4 233.6 100.4 214.4 100.4 214.4 132.8 359.8 402.1 360.5 402.1 360.5 132.8 454.8 132.8 454.8 546.4 454.8 617.9 454.8 650.2 487.1 650.2 487.1 617.9 487.1 132.8 487.1 100.4 454.8 100.4"/>
  </g>
</svg>