<?xml version="1.0" encoding="UTF-8"?>
<svg xmlns="http://www.w3.org/2000/svg" viewBox="0 0 2000 2000">
  <defs>
    <style>
      .cls-1 {
        fill: #697f8c;
      }

      .cls-2 {
        fill: #aab8c0;
      }
    </style>
  </defs>
  <g id="Ebene_4" data-name="Ebene 4">
    <rect width="2000" height="2000"/>
  </g>
  <g id="Ebene_1" data-name="Ebene 1">
    <g>
      <g>
        <path class="cls-1" d="M575.65,100l40.1,77.65h.2v-77.65h26.01v139.85h-20.73l-42.44-81.57h-.2v81.57h-25.82V100h22.89Z"/>
        <path class="cls-1" d="M758.76,216.57c0,12.91-5.87,23.28-23.87,23.28h-44.79c-18,0-24.06-10.37-24.06-23.28v-93.3c0-12.91,6.06-23.27,24.06-23.27h44.79c18,0,23.87,10.36,23.87,23.27v93.3ZM731.76,123.47h-38.53v92.91h38.53v-92.91Z"/>
        <path class="cls-1" d="M843.66,100c17.99,0,24.06,10.36,24.06,23.27v38.93c0,12.71-5.87,22.69-22.69,23.08l29.93,54.57h-31.3l-28.17-54.57h-5.48v54.57h-26.99V100h60.64ZM810.01,161.61h24.45c3.33,0,6.26-2.93,6.26-6.46v-25.23c0-3.52-2.93-6.46-6.26-6.46h-24.45v38.14Z"/>
        <path class="cls-1" d="M879.08,100h79.81v23.47h-26.41v116.38h-26.99v-116.38h-26.41v-23.47Z"/>
        <path class="cls-1" d="M1036.16,157.11v-57.11h26.99v139.85h-26.99v-59.46h-36.19v59.46h-26.99V100h26.99v57.11h36.19Z"/>
        <path class="cls-1" d="M1208.7,163.18c0,12.91-5.87,23.08-23.86,23.08h-32.47v53.6h-26.99V100h59.46c17.99,0,23.86,10.36,23.86,23.27v39.91ZM1152.36,123.47v39.12h23.08c3.33,0,6.26-2.93,6.26-6.46v-26.21c0-3.52-2.93-6.46-6.26-6.46h-23.08Z"/>
        <path class="cls-1" d="M1288.33,100c17.99,0,24.06,10.36,24.06,23.27v38.93c0,12.71-5.87,22.69-22.69,23.08l29.93,54.57h-31.3l-28.17-54.57h-5.48v54.57h-26.99V100h60.64ZM1254.68,161.61h24.45c3.33,0,6.26-2.93,6.26-6.46v-25.23c0-3.52-2.93-6.46-6.26-6.46h-24.45v38.14Z"/>
        <path class="cls-1" d="M1426.24,216.57c0,12.91-5.87,23.28-23.87,23.28h-44.79c-18,0-24.06-10.37-24.06-23.28v-93.3c0-12.91,6.06-23.27,24.06-23.27h44.79c18,0,23.87,10.36,23.87,23.27v93.3ZM1399.25,123.47h-38.53v92.91h38.53v-92.91Z"/>
      </g>
      <g>
        <path class="cls-2" d="M574.42,1808.8c0,6.7,2.36,8.86,9.06,9.26l20.68.79c17.93.78,23.84,10.63,23.84,23.63v34.07c0,13-5.91,23.44-23.84,23.44h-30.33c-17.92,0-23.83-10.44-23.83-23.44v-14.18l20.48-4.34v16.74c0,3.55,2.95,6.5,6.3,6.5h23.64c3.35,0,6.11-2.95,6.11-6.5v-27.18c0-6.7-1.97-8.47-8.87-8.87l-20.68-.78c-17.92-.79-24.03-10.44-24.03-23.44v-31.91c0-13,6.11-23.44,24.03-23.44h26.4c17.92,0,23.83,10.44,23.83,23.44v13l-20.88,4.34v-15.56c0-3.55-2.76-6.5-5.91-6.5h-19.9c-3.35,0-6.11,2.95-6.11,6.5v24.42Z"/>
        <path class="cls-2" d="M678.64,1900v-140.83h67.16v18.71h-45.89v41.36h28.36v19.3h-28.36v42.74h48.26v18.71h-69.53Z"/>
        <path class="cls-2" d="M844.7,1759.17c17.93,0,24.03,10.44,24.03,23.44v36.64c0,13-6.11,23.24-24.03,23.24h-.2l31.32,57.52h-25.21l-29.35-57.52h-7.49v57.52h-21.27v-140.83h52.19ZM813.78,1823.77h27.38c3.35,0,6.11-2.95,6.11-6.5v-32.89c0-3.55-2.76-6.5-6.11-6.5h-27.38v45.89Z"/>
        <path class="cls-2" d="M928.43,1759.17l24.23,96.71h.2l22.06-96.71h21.27l-36.24,140.83h-16.54l-37.82-140.83h22.84Z"/>
        <path class="cls-2" d="M1060.42,1900h-21.27v-140.83h21.27v140.83Z"/>
        <path class="cls-2" d="M1113.81,1782.61c0-13,6.11-23.44,24.03-23.44h28.56c17.93,0,23.84,10.44,23.84,23.44v19.7l-20.49,4.34v-28.76h-34.47v103.41h34.47v-32.3l20.49,4.14v23.44c0,13-5.91,23.44-23.84,23.44h-28.56c-17.92,0-24.03-10.44-24.03-23.44v-93.95Z"/>
        <path class="cls-2" d="M1240.09,1900v-140.83h67.16v18.71h-45.89v41.36h28.36v19.3h-28.36v42.74h48.26v18.71h-69.53Z"/>
        <path class="cls-2" d="M1372.67,1808.8c0,6.7,2.36,8.86,9.06,9.26l20.68.79c17.93.78,23.84,10.63,23.84,23.63v34.07c0,13-5.91,23.44-23.84,23.44h-30.33c-17.92,0-23.83-10.44-23.83-23.44v-14.18l20.48-4.34v16.74c0,3.55,2.95,6.5,6.3,6.5h23.64c3.34,0,6.11-2.95,6.11-6.5v-27.18c0-6.7-1.97-8.47-8.87-8.87l-20.68-.78c-17.92-.79-24.03-10.44-24.03-23.44v-31.91c0-13,6.11-23.44,24.03-23.44h26.4c17.92,0,23.83,10.44,23.83,23.44v13l-20.88,4.34v-15.56c0-3.55-2.76-6.5-5.91-6.5h-19.9c-3.35,0-6.11,2.95-6.11,6.5v24.42Z"/>
      </g>
      <g>
        <polygon class="cls-2" points="836.27 908.77 836.27 1545.55 625.56 1545.55 625.56 514.35 625.56 453.7 625.56 380.91 552.77 380.91 552.77 453.7 552.77 1545.55 552.77 1618.34 625.56 1618.34 836.27 1618.34 909.06 1618.34 909.06 1545.55 909.06 1191.98 1120.31 1580.33 1140.99 1618.34 1184.25 1618.34 1184.25 1545.55 837.86 908.77 836.27 908.77"/>
        <polygon class="cls-1" points="1353.45 380.91 1141.15 380.91 1068.36 380.91 1068.36 453.7 1068.36 774.81 876.37 419.13 855.74 380.91 812.32 380.91 812.32 453.7 1139.56 1059.95 1141.15 1059.95 1141.15 453.7 1353.45 453.7 1353.45 1384.65 1353.45 1545.55 1353.45 1618.34 1426.24 1618.34 1426.24 1545.55 1426.24 453.7 1426.24 380.91 1353.45 380.91"/>
      </g>
    </g>
  </g>
</svg>